<?xml version="1.0" encoding="UTF-8"?>
<svg version="1.1" viewBox="0 0 2048 825" width="3789" height="1528" xmlns="http://www.w3.org/2000/svg">
<path transform="translate(17,124)" d="m0 0h447l1 90 3 15v22l-3 19v182l10 15 5 9v8l-3 3-7-2-5-4v182l7 8 7 7 14 10 12 5 4 1h11l10-4 8-7 6-12 3-10 1-16-3-16-7-16-9-14-9-11-20-20 5 2 18 10 20 14 13 11 15 15 10 14 8 16 4 14 1 7v16l-4 18-8 16-9 13-8 9-10 7-12 5-14 1-14-3-16-8-14-10-19-19-1-2-1 87h-448v-676z" fill="#EC1D23"/>
<path transform="translate(1035,139)" d="m0 0h24l19 3 16 5 16 8 12 9 9 8 10 13 8 13 16-13 20-14 20-12 16-8 15-6 15-4 13-2h24l20 3 16 5 16 8 12 9 9 9 10 14 8 17 6 20 3 19 1 11v240h-111l-1-190-1-26-2-15-5-14-6-8-8-6-13-4-6-1h-26l-16 4-20 9-11 6-1 245h-112l-1-212-2-17-4-13-6-10-8-6-10-4-10-2h-26l-16 4-24 11-7 4-1 245h-112v-345h112l1 36 18-13 19-12 21-11 18-6 14-3z" fill="#010000"/>
<path transform="translate(1640,139)" d="m0 0h38l31 3 23 4 32 8 20 7 5 2v88h-11l-14-9-27-13-24-8-23-5-18-2h-25l-16 2-17 5-9 5-5 5-3 6v10l3 8 8 7 14 5 24 6 50 9 30 7 22 8 15 8 13 10 10 10 9 14 5 12 4 16 1 8v19l-3 18-6 16-6 11-11 14-8 8-13 10-15 9-17 8-25 8-26 5-17 2-16 1h-35l-28-2-32-5-32-8-24-8-10-5v-91h11l15 10 14 8 15 7 25 9 23 6 18 3 11 1h29l17-2 15-4 10-6 4-5 2-4v-14l-3-6-6-5-12-5-25-6-56-10-26-7-20-8-15-8-12-9-7-6-11-14-8-16-4-12-2-11v-30l4-17 8-17 9-12 9-10 13-11 16-10 16-8 20-7 20-5 28-4z"/>
<path transform="translate(388,163)" d="m0 0h14l20 6 17 9 12 11 8 11 5 11 3 11 1 7v22l-3 19v182l10 15 5 9v8l-3 3-7-2-6-5-11-16-16-21-13-16-13-15-14-15-29-29-8-7-14-12-14-11-18-13-15-10-15-9-8-4 2 18 5 14 7 11 11 11 14 9 16 7 20 6 16 3-1 2h-41l-23-3-20-5-17-7-14-9-10-9-7-8-8-14-5-15-2-19 1-19-28-13-33-13-6-2 4-1 35 11 31 11 1-6 6-11 10-10 14-7 9-2 18-1 17 2 17 4 9 3-1-2v-16l3-15 5-12 8-11 8-7 15-8 13-4z" fill="#fff"/>
<path transform="translate(1891,149)" d="m0 0h111v345h-111z"/>
<path transform="translate(683,405)" d="m0 0h15l15 3 13 5 14 9 10 9 9 11 7 11 4 12v17l-5 14-9 13-13 13-14 10-14 8 6 7 5 5 7 8 7 14 3 11v16l-4 15-8 16-10 13-8 7-16 9-14 5-12 2h-12l-15-3-16-8-13-10-9-9-10-13-12-19-11-22-10-26-5-16 1-2 11 18 10 14 13 15 10 9 14 9 12 5 9 2h16l13-4 8-7 7-11 3-8 1-11-3-14-7-13-9-11-2-3 18-12 10-9 7-8 5-11 1-5v-7l-3-10-6-8-10-7-13-6-8-2h-22l-17 4-16 7-13 7-17 12-2 1 2-4 12-13 10-11 8-7 12-10 15-10 15-8 18-6z" fill="#EC1D23"/>
<path transform="translate(559,161)" d="m0 0h22l10 3 9 5 8 7 7 11 5 12 3 12 2 22v18l15-4 8-1h11l14 3 12 6 10 8 10 13 8 16 4 12v24l-4 18-8 16-8 10-8 7-14 8-15 5-16 3-12 1h-19l-23-2-28-5-22-6v-1l38-1 19-3 15-4 13-6 11-7 6-5 9-13 4-11v-10l-4-13-6-10-7-6-10-5-9-2h-20l-10 1-1-26-4-17-6-11-8-7-11-4h-10l-16 6-11 8-7 7-9 15-6 18-3 20v34l-2-3-7-25-4-22-1-9v-31l3-17 5-14 7-13 11-13 12-9 16-8 16-4z" fill="#EC1D23"/>
<path transform="translate(236,378)" d="m0 0h14l22 3 25 7 21 8 29 14 8 5-2 1-23-6-19-3h-30l-14 3-13 5-10 7-5 5-6 8-3 6v19l4 12 6 8 8 7 14 6 9 2 11 1 3 1-4 18-1 6v21l3 10 6 9 9 6 7 2h11l16-4 12-6 12-11 8-10 8-15 6-16 5-21 1-7h2v43l-3 23-5 19-6 15-8 14-11 12-8 7-14 8-15 5-18 2-16-1-14-3-14-7-8-7-7-11-4-14-1-8v-14l3-20 5-18-19-1-14-3-12-5-9-7-7-7-8-14-5-15-2-11v-18l5-17 8-16 8-10 7-7 11-7 13-5 9-2z" fill="#fff"/>
<path transform="translate(387,226)" d="m0 0h17l12 6 6 5 9 12 5 11 4 17 1 10v11l-3 25-6 24 1 1 10-19 11-26 7-21 2-8h1v177l-4-5-16-21-11-13-11-12-13-14-8-7-14-13-11-9-18-14-19-13-17-11-15-9-18-10-10-6 4-7 9-7 13-4h19l20 4 6 2v-12l4-16 5-10 9-10 14-7z" fill="#EC1D23"/>
<path transform="translate(415,572)" d="m0 0 2 1-9 11-11 17-12 23-5 15-2 12v11l3 12 6 9 11 8 8 4 8 2h10l12-4 10-7 5-4 10-13 3-3v48l-10 14-12 12-13 8-13 4-7 1h-8l-15-3-15-6-15-10-7-7-10-15-5-12-2-9v-20l4-15 8-16 7-11 11-13 20-20 14-11 17-12z" fill="#fff"/>
<path transform="translate(1888,15)" d="m0 0h117v84h-117z" fill="#020000"/>
<path transform="translate(819,539)" d="m0 0h1183v7l-1 1h-1182z" fill="#EC1D23"/>
<path transform="translate(1935,573)" d="m0 0h24l11 4 6 5 3 6v11l-4 8-8 7-8 4 14 13 3 2 1-19h24v12l-3 11-5 9 2 4 14 12 6 5v3h-30l-8-7-5 2-11 5-12 2-15-1-11-4-8-6-5-7-2-6v-11l4-10 8-8 4-2 1-2-4-2-6-7-2-5v-11l3-6 8-7zm8 13-5 4-1 2v6l6 8 4 3 4-2 4-6v-10l-4-4-2-1zm-6 41-4 8v7l3 6 5 5 6 2h8l9-3-2-4-15-14-8-7z" fill="#030000"/>
<path transform="translate(1490,596)" d="m0 0h12l10 5 5 6 11-7 9-4h12l8 3 7 8 2 5 1 6v51l-1 1h-22l-1-39-1-11-4-4h-12l-6 2v51l-1 1h-22l-1-38-1-11-2-4-2-1h-12l-6 2v51l-1 1h-22l-1-1v-71h24l1 6 10-6z" fill="#040000"/>
<path transform="translate(858,596)" d="m0 0h13l10 5 5 6 14-9 6-2h12l8 3 6 7 3 8v56h-22l-1-1-1-48-2-4-2-1h-12l-6 3-1 51h-22l-1-1-1-47-2-5-2-1h-12l-6 3-1 51h-22l-1-1v-71h23v7l11-7z" fill="#030000"/>
<path transform="translate(1277,596)" d="m0 0h13l12 4 1-2h22v74l-3 9-8 9-8 4-8 2h-28l-11-2-1-1v-17l3-1 16 4h11l9-3 4-6v-7l-8 4-9 2-11-1-10-4-7-7-4-9-2-15 2-15 5-10 7-7 9-4zm9 17-7 4-4 7-1 5 1 13 4 6 7 3h7l8-3 1-1v-33l-3-1z" fill="#010000"/>
<path transform="translate(982,596)" d="m0 0h24l12 3 8 6 4 7 1 5v52l-1 1h-21l-1-1v-6l-12 7-14 2-9-2-8-5-4-5-2-6v-11l4-8 7-6 11-4 13-2 14-1-3-6-7-3h-17l-13 4h-3v-18zm20 40-12 2-5 3-2 2v9l4 3 3 1h8l10-5v-15z" fill="#030000"/>
<path transform="translate(1178,596)" d="m0 0h24l12 3 6 4 5 6 2 7v53l-1 1h-21l-1-1v-6l-12 7-14 2-9-2-9-6-4-7-1-4v-9l3-8 8-7 11-4 13-2 14-1-3-6-6-3h-18l-13 4-3-1v-16l4-2zm20 40-15 3-4 4v9l4 3 3 1h8l9-4 1-1v-15z" fill="#040000"/>
<path transform="translate(1621,596)" d="m0 0h20l10 3 8 6 5 8 2 7v18h-52l3 9 6 5 6 2h16l11-4 6-3h3v19l-12 4-16 2-15-1-13-4-10-7-6-9-3-14 1-13 4-11 9-10 12-6zm4 14-8 4-3 6v4h29v-6l-3-5-6-3z" fill="#040000"/>
<path transform="translate(1380,596)" d="m0 0h21l11 4 7 6 5 9 2 12v11h-53l3 8 5 5 8 3h15l14-5 3-2h3v19l-12 4-16 2-15-1-13-4-8-6-6-7-4-11v-18l4-11 6-8 8-6zm4 14-6 3-4 5-1 6h30l-2-8-5-5-3-1z" fill="#040000"/>
<path transform="translate(1300,709)" d="m0 0h19l10 3 8 6 5 7 3 11v15h-53l4 10 5 4 6 2h17l11-4 5-3h4v18l-5 3-12 3-8 1h-11l-16-3-10-5-7-7-4-8-2-7v-15l4-13 7-9 10-6zm4 14-8 4-4 8 1 3h28l1-4-3-7-4-3-4-1z" fill="#030000"/>
<path transform="translate(1963,709)" d="m0 0h20l11 4 8 7 5 10 1 5v16h-52l3 9 4 4 7 3h17l12-4 5-3h3v19l-16 5-9 1h-11l-16-3-11-6-7-8-4-9-1-6v-12l3-11 5-8 9-8 10-4zm5 14-7 3-4 4-1 2v6h29l-1-8-4-5-5-2z" fill="#010000"/>
<path transform="translate(1043,709)" d="m0 0h19l10 3 6 4 6 7 3 7 1 5v16h-52l3 9 5 5 6 2h17l11-4 6-3h3v19l-12 4-13 2h-11l-16-3-11-6-7-8-4-9-1-5v-13l2-9 5-9 8-8 12-5zm5 14-8 3-4 6v6h28l1-5-3-6-4-3-3-1z" fill="#020000"/>
<path transform="translate(1492,709)" d="m0 0h12l8 3 5 4 4 7 2 12v47l-1 1h-23l-1-47-3-6-2-1h-12l-7 3-1 51h-22l-1-1v-71h23v7l12-7z" fill="#030000"/>
<path transform="translate(1100,596)" d="m0 0h14l9 4 6 7 3 12v50l-1 1h-22l-1-1-1-47-3-5-2-1h-12l-7 2v51l-1 1h-22l-1-2 1-70h23l1 6 10-6z" fill="#050000"/>
<path transform="translate(1731,596)" d="m0 0h13l10 4 6 8 2 6 1 55-1 1h-22l-1-1-1-46-3-6-2-1h-12l-7 3-1 51h-22l-1-1v-71h23v7l14-8z" fill="#030000"/>
<path transform="translate(1146,709)" d="m0 0h12l9 4 7 8 2 7v55h-23l-1-46-3-7-2-1h-12l-7 3-1 51h-23v-72h23v7l12-7z"/>
<path transform="translate(1784,711)" d="m0 0h23l1 42 2 9 5 3h9l8-3 1-51h23v72h-23l-1-7-9 6-10 3h-8l-10-3-6-5-4-8-1-6z"/>
<path transform="translate(842,709)" d="m0 0h17l17 4 1 1v18l-5-1-12-5-11-1-9 2-2 2 1 4 7 3 19 4 10 5 4 5 2 7-1 10-5 8-9 6-9 3-8 1h-12l-17-3-7-3v-18l3-1 12 6 8 2h16l4-1v-6l-8-3-18-4-10-5-5-7-1-3v-11l4-8 8-6 10-4z" fill="#040000"/>
<path transform="translate(1567,709)" d="m0 0h17l14 3 5 2v18l-5-1-13-5-11-1-9 2-1 1v5l7 3 20 4 9 5 4 5 2 6v8l-3 7-5 6-12 6-11 2h-13l-16-3-7-3v-19l4 1 10 5 8 2h16l4-2v-5l-7-3-16-3-10-4-7-8-2-5v-10l3-6 7-7 12-5z" fill="#020000"/>
<path transform="translate(924,709)" d="m0 0h16l12 3 6 3v19h-5l-9-6-3-1h-14l-7 4-4 8-1 9 2 10 4 6 7 3h12l8-3 6-5 4 1v19l-9 4-11 2h-10l-15-3-11-6-6-7-4-8-2-15 2-13 4-8 6-7 10-6z" fill="#030000"/>
<path transform="translate(1622,691)" d="m0 0h23l1 19 21 1v16h-22l1 29 2 9 2 2h11l6-1v16l-7 2h-19l-9-3-7-6-2-5-1-6v-37h-9v-16h9z" fill="#010000"/>
<path transform="translate(1879,691)" d="m0 0h23v20h22v16h-22l1 32 2 6 2 2h11l6-1v16l-8 2h-18l-10-3-5-5-3-6-1-5v-38h-9v-16h9z"/>
<path transform="translate(1726,691)" d="m0 0h24v20h21v16h-21l1 36 4 4h11l5-1v16l-7 2h-19l-11-4-5-6-2-5v-42h-10v-16l9-1z"/>
<path transform="translate(1793,577)" d="m0 0h22l1 1v20h21v15h-21l1 36 2 4 2 1h10l6-1v16l-8 2h-17l-10-3-6-5-3-7-1-42-9-1v-15l9-1z"/>
<path transform="translate(1226,709)" d="m0 0h16l12 3 5 2v20l-6-1-8-5-3-1h-14l-6 4-4 6-1 4v12l3 8 6 5 4 1h12l10-5 4-3h3v20l-9 4-11 2h-9l-12-2-10-4-10-9-4-8-2-8v-14l3-10 5-8 8-7 9-4z" fill="#020000"/>
<path transform="translate(1681,711)" d="m0 0h23v72h-23z"/>
<path transform="translate(1406,711)" d="m0 0h23v72h-23z"/>
<path transform="translate(973,711)" d="m0 0h23v72h-23z"/>
<path transform="translate(59,197)" d="m0 0h11l6 3 6 7 2 6-1 10-4 6-5 4-5 2h-9l-8-4-5-6-2-6 1-10 4-6 6-5z" fill="#fff"/>
<path transform="translate(182,271)" d="m0 0 9 1 6 7v9l-3 5-6 3h-7l-6-4-3-6 1-8 4-5z" fill="#fff"/>
<path transform="translate(144,255)" d="m0 0 7 1 5 4 2 5-1 9-7 6h-9l-6-4-2-4v-8l4-6z" fill="#fff"/>
<path transform="translate(97,242)" d="m0 0h9l6 4 2 4v9l-5 6-5 2-8-1-5-5-2-4 1-8 5-6z" fill="#fff"/>
<path transform="translate(122,204)" d="m0 0h8l5 3 3 4 1 8-3 6-4 3-9 1-6-4-3-5v-8l3-5z" fill="#fff"/>
<path transform="translate(205,229)" d="m0 0h9l7 6 1 9-4 7-9 3-7-2-4-5-1-2v-8l4-6z" fill="#fff"/>
<path transform="translate(165,218)" d="m0 0h10l6 5 1 2v10l-5 6-5 2-7-1-6-5-1-2v-10l5-6z" fill="#fff"/>
<path transform="translate(1406,683)" d="m0 0h23l1 1v16l-1 1h-24v-17z" fill="#140203"/>
<path transform="translate(1680,683)" d="m0 0h24v18h-24z" fill="#0D0101"/>
<path transform="translate(972,683)" d="m0 0h24v18h-24z" fill="#0D0101"/>
<path transform="translate(499,567)" d="m0 0" fill="#EC1D23"/>
<path transform="translate(578,476)" d="m0 0" fill="#EC1D23"/>
</svg>
