<?xml version="1.0" encoding="UTF-8" standalone="no"?>
<!DOCTYPE svg PUBLIC "-//W3C//DTD SVG 1.1//EN" "http://www.w3.org/Graphics/SVG/1.1/DTD/svg11.dtd">
<svg width="100%" height="100%" viewBox="0 0 660 130" version="1.1" xmlns="http://www.w3.org/2000/svg" xmlns:xlink="http://www.w3.org/1999/xlink" xml:space="preserve" xmlns:serif="http://www.serif.com/" style="fill-rule:evenodd;clip-rule:evenodd;stroke-linejoin:round;stroke-miterlimit:2;">
    <g transform="matrix(1.39856,0,0,1.38664,150.564,53.5089)">
        <path d="M0,43.253C-11.41,43.253 -18.805,34.225 -18.805,21.563C-18.805,9.027 -11.41,0.003 0,0.003C10.908,0.003 18.679,8.901 18.679,21.563C18.679,34.225 11.033,43.253 0,43.253M0,-11.909C-19.182,-11.909 -32.719,2.256 -32.719,21.563C-32.719,40.996 -19.182,55.162 0,55.162C18.805,55.162 32.723,41.122 32.723,21.563C32.723,2.134 18.805,-11.909 0,-11.909" style="fill-rule:nonzero;"/>
    </g>
    <g transform="matrix(1.39856,0,0,1.38664,398.569,19.7874)">
        <path d="M0,66.569C-17.678,66.569 -30.34,52.529 -30.34,33.222C-30.34,14.04 -17.678,-0.125 0,-0.125C17.552,-0.125 30.215,14.04 30.215,33.222C30.215,52.529 17.552,66.569 0,66.569M0,-12.913C-26.078,-12.913 -45.134,6.642 -45.134,33.222C-45.134,59.924 -26.078,79.482 0,79.482C25.952,79.482 45.008,60.05 45.008,33.222C45.008,6.516 25.952,-12.913 0,-12.913" style="fill:rgb(251,45,60);fill-rule:nonzero;"/>
    </g>
    <g transform="matrix(1.39856,0,0,1.38664,527.256,128.61)">
        <path d="M0,-66.07C-9.279,-66.07 -17.05,-61.431 -21.564,-54.036L-21.564,-65.069L-35.227,-65.069L-35.227,0L-21.564,0L-21.564,-28.586C-21.564,-44.255 -14.793,-53.784 -3.635,-53.784C4.639,-53.784 9.777,-48.018 9.777,-39.867L9.777,0L23.444,0L23.444,-42.877C23.444,-56.917 13.792,-66.07 0,-66.07" style="fill:rgb(251,45,60);fill-rule:nonzero;"/>
    </g>
    <g transform="matrix(1.39856,0,0,1.38664,592.847,94.0113)">
        <path d="M0,-15.167C2.006,-24.697 8.149,-30.337 17.302,-30.337C27.079,-30.337 32.723,-23.943 33.347,-15.167L0,-15.167ZM48.015,-9.903C48.141,-26.075 37.484,-41.119 17.302,-41.119C-3.258,-41.119 -14.166,-25.196 -14.166,-7.646C-14.166,10.032 -2.633,25.952 17.929,25.952C33.473,25.952 45.385,18.055 47.639,3.889L34.226,3.889C32.723,10.534 26.329,14.294 18.303,14.294C7.772,14.294 0.628,7.524 -0.628,-4.385L47.764,-4.385C47.764,-4.385 48.015,-7.395 48.015,-9.903" style="fill:rgb(251,45,60);fill-rule:nonzero;"/>
    </g>
    <g transform="matrix(1.39856,0,0,1.38664,297.105,117.828)">
        <path d="M0,-76.723L-13.647,-76.723L-13.647,-57.29L-43.799,-57.29L-43.799,-65.915C-43.799,-68.898 -41.37,-71.327 -38.386,-71.327L-29.874,-71.327L-29.874,-84.974L-38.386,-84.974C-48.897,-84.974 -57.446,-76.426 -57.446,-65.915L-57.446,-57.29L-68.423,-57.29L-68.423,-45.758L-57.446,-45.758L-57.446,7.775L-43.799,7.775L-43.799,-45.758L-13.647,-45.758L-13.647,-10.805C-13.647,-0.297 -5.099,8.251 5.409,8.251L13.924,8.251L13.924,-5.396L5.409,-5.396C2.429,-5.396 0,-7.821 0,-10.805L0,-45.758L16.303,-45.758L16.303,-57.29L0,-57.29L0,-76.723Z" style="fill-rule:nonzero;"/>
    </g>
    <g transform="matrix(1.39856,0,0,1.38664,63.4694,74.7183)">
        <path d="M0,-12.662L-15.795,-17.176C-22.44,-19.056 -26.953,-22.192 -26.953,-28.457C-26.953,-35.478 -20.936,-39.741 -10.908,-39.741C-0.502,-39.741 6.017,-33.975 7.273,-26.451L21.689,-26.451C20.434,-42.5 7.521,-52.529 -10.908,-52.529C-29.085,-52.529 -41.872,-42.626 -41.872,-28.334C-41.872,-12.913 -31.718,-6.77 -19.558,-3.383L-4.011,1.13C2.885,3.133 7.897,7.022 7.897,14.04C7.897,21.815 0.753,26.953 -10.154,26.953C-21.313,26.953 -30.215,19.182 -30.965,9.027L-45.382,9.027C-44.129,27.958 -29.336,39.867 -10.154,39.867C9.777,39.867 22.816,29.461 22.816,13.667C22.816,-3.01 12.537,-9.153 0,-12.662" style="fill-rule:nonzero;"/>
    </g>
</svg>
